<svg xmlns="http://www.w3.org/2000/svg" viewBox="0 0 681.48 293.38"><title>jaathre_logo1</title><g id="Layer_2" data-name="Layer 2"><g id="Layer_1-2" data-name="Layer 1"><path d="M291.07,222.52c-3.67,2.84-5.59.62-7.35-1.45-3.35-3.94-6.47-8.06-9.79-12-2.73-3.25-5.56-6.41-8.42-9.55-2.2-2.4-4.07-4.64.16-6.92a2.71,2.71,0,0,0,1.11-2.19c-1.16-10,2.49-19.26,4.18-28.81a8.6,8.6,0,0,0-2.91-8.47,3.9,3.9,0,0,0-3.29-.4c-.71.24-1.35,1.51-1.52,2.41-.93,4.93-1.74,9.89-2.53,14.84-1,6-2,12.1-2.7,18.17a10.62,10.62,0,0,0,.91,5c1.12,2.73-.08,3.58-2.45,3.27a11.23,11.23,0,0,1-4.35-1.66q-9.65-6-19.15-12.29c-7.32-4.8-7.65-5.62-5.57-14.12,2.92-12,6.06-23.87,8.8-35.88a110.17,110.17,0,0,0,2.18-15.26c.92-10.84,2.17-21.7,2.12-32.55,0-8.92-1.78-17.83-2.72-26.75a18.23,18.23,0,0,1,0-4.49c.36-2.38,2-2.89,4.09-2.2,8.32,2.68,16.58,5.57,25,8,6.2,1.8,12.55,3.1,18.87,4.49,2.58.57,3.54,1.34,2.42,4.27-2.13,5.58-3.56,11.42-5.61,17-1,2.61-.35,3.5,2.24,3.49a17.18,17.18,0,0,0,6.12-.77,15.52,15.52,0,0,1-2.46,0c-3.39-.57-4.11-2.34-2.87-5.56,3-7.82,6.26-15.58,8.57-23.61,1.47-5.13,1.31-10.71,2.11-16.05.64-4.35,1.58-8.66,2.45-13,.71-3.56,1.51-7.09,2.52-11.77,2.07,4.33,4,7.65,5.3,11.2,2.06,5.6,3.8,11.32,5.51,17,1.21,4,4.84,5.62,7.65,8a11.78,11.78,0,0,0,1.62.84c6.73,4,6.72,4,12.66-.75,7.08-5.72,9.55-13.22,9.71-22.18.08-4.91,2-9.79,3.75-14.63,1.61,4.54,3.93,8.43,3.77,13.47s1.23,10.44,2.36,15.57c1.44,6.5,3.33,12.76,3,19.69-.25,5.33,1.58,10.83,2.94,16.14.72,2.79-.36,3.67-2.61,4-6.39,1.06-12.82,2-19.19,3.13A3,3,0,0,0,336,91.62c-.11,10.62-.08,21.25,0,31.87a33.54,33.54,0,0,0,.55,4.2l1.39-.11c-.15-3.06-.47-6.13-.42-9.19.15-7.86.39-15.72.81-23.57a3.71,3.71,0,0,1,2.28-2.56,193.55,193.55,0,0,1,19.24-4.33c3.78-.57,3.5-2.69,2.94-5-1.19-4.83-2.72-9.57-4.13-14.35-.82-2.76.46-4.67,3.29-4.88,6.61-.49,8.75.9,10,7.49,2.41,13,4.54,26,6.82,39,.38,2.15,1,4.26,1.46,6.39a5.21,5.21,0,0,0,.87-.18c7.31-3.24,7.91-5.11,5.77-14.89-1.44-6.55-1.67-13.47-3.87-19.72-1.72-4.9-2.88-10.75-8.43-13.65-1.39-.73-2.33-2.33-3.63-3.7.8-.5,1.25-1,1.77-1.08,5.12-.94,10.27-1.77,15.39-2.72s10.33-1.87,15.44-3.08c3.55-.85,6,1,6.35,4.61.41,4.69,1.28,9.35,2.11,14,1.61,9,3.51,18,4.95,27,1.86,11.62,3.34,23.3,5.06,34.95A142,142,0,0,0,426,158c-.29-2.62-.6-5.23-.87-7.84-1-9.55-1.76-19.12-3-28.63-1.29-9.71-3.06-19.35-4.64-29-1.17-7.13-2.41-14.24-3.53-21.38-.6-3.88-1-7.78-1.5-11.68-.22-1.81.26-2.88,2.43-3.37,8.05-1.8,16-3.85,24-5.88,6.62-1.67,13.25-3.34,19.82-5.19,8.69-2.44,17.52-1.8,26.34-1.41,1.19.06,2.4,1.29,3.48,2.14,3.93,3.1,8,6.09,11.68,9.47,6.4,5.87,11,13.1,11,21.92s-.95,17.69-5.15,25.73c-3.77,7.21-10.32,11.84-16.55,16.67-1,.77-2.78.49-5,.81,4.23,3.76,8.11,7,11.73,10.5a79,79,0,0,1,7.45,8.28C509.11,146,514.29,153,519.49,160c.47.63,1,1.71.8,2.26-1.69,3.92-3,8.14-5.5,11.54-5,6.91-10.61,13.39-16,20a21,21,0,0,1-3,2.64c-4.89-4.41-9.13-8.75-13.92-12.37-2.57-1.95-4.91-5.13-9.08-4.37-.34.06-1.6-2.63-1.73-4.1-1.21-14.28-5.54-27.75-10.83-40.93-1.24-3.09-3.66-5.7-6.21-8.22.4,7.91.74,15.81,1.24,23.71a167.51,167.51,0,0,0,1.63,17.65c.44,2.6,2.57,4.91,4.22,7.86C450,172,438,175.3,426.94,170.81c-1.32,3.66-5.06,5.48-9.05,6.32-7.47,1.57-13.1,6.3-19.25,10.2-2.55,1.62-5,4.14-8.89,1.76,2-4.45,4.19-8.9,2.53-14.21-1.47-4.69-2.21-9.62-3.38-15-3.25,1.94-5.79,3.15-7.93,4.86a5.08,5.08,0,0,0-1.45,3.85c.54,6.24,1.61,12.43,2,18.67.2,3.27,1.41,4.76,4.55,5,.52,0,1,.59,1.71,1-6.36,6.76-12.75,13.36-18.91,20.16-2.87,3.18-5.27,6.78-8,10.13-4.1,5.11-4.21,5.26-10,.25,1,2,1.91,4.1,2.95,6.11s.74,3.34-.68,5.28c-4.25,5.83-8.14,11.93-11.94,18.07a142.86,142.86,0,0,0-8.66,15.32c-2.12,4.61-3.24,9.67-4.94,14.48a67.71,67.71,0,0,1-3.83,9.07c-.25.46-2.81.34-3.68-.33-1.41-1.08-2.31-2.83-3.47-4.35,2.48-4.14,1.52-8.59.19-12.79-2.27-7.2-4.5-14.51-7.8-21.26-2.68-5.48-7.08-10.09-10.41-15.29C295.64,233.44,290.21,229.92,291.07,222.52Zm46.81-66.18q1.22,17.46,2.42,34.92c.78-.51.91-1,.88-1.45-.49-8.89-.91-17.79-1.58-26.66-.17-2.29-1.14-4.52-1.74-6.79V135.14l-.76,0ZM268.05,100.6a73.81,73.81,0,0,0-1,8.67c0,2.1,0,5.09,1.31,6.1,2.07,1.63,5.16,1.95,7.8,2.82.57-2.19.94-3.48,1.23-4.78C279.48,104.06,276.68,100.15,268.05,100.6ZM467.9,83.08c-.61-5.56-9.84-11.75-19.77-13.31l8,14.89ZM307.6,144.65a31.65,31.65,0,0,0-1.61,5.48c-1.32,12.65-2.71,25.28-6.06,37.59q-4.21,15.5-8.44,31c-.25.92-.38,1.87-.56,2.81l1.08.2C301.2,196.91,305.7,171.1,307.6,144.65Zm33.67,50.68c-1,8.69,2.3,16.26,7.35,24.44C346,210.9,343.59,203.06,341.27,195.33Zm-32.06-90.24-.21.12c-.27,5.55-.65,11.09-.78,16.64s0,11.09,0,16.64l1,0Zm-7.84-16c6.67,1.51,9,5.67,7.31,12.54l1.19-.39V90.87Z"/><path d="M69.9,66.35c2.9-3.28,5.69-6.68,8.74-9.83,4.53-4.68,9-9.48,14-13.69,6.21-5.29,12.86-10.06,19.38-15,4.69-3.55,9.34-7.16,14.22-10.43,9-6,19.07-9.7,29.39-12.47,1.79-.48,5.63,2.33,6.78,4.53,3.56,6.79,6.27,14,9.33,21.09.38.87.63,2.15,1.3,2.47,3,1.4,3,3.54,1.79,6.5,4.34-5.52,9.51-4.86,15-2.86,3,1.08,6,1.94,9.08,2.76,8.94,2.4,17.93,4.62,26.83,7.16,3,.86,5.86,2.47,9.54,4.07,1.06,12.84,2.76,26,3,39.09.16,9-1.62,18.11-2.76,27.14-1.1,8.75-2.32,17.5-3.84,26.19-1.14,6.48-2.79,12.87-4.32,19.28-.74,3.07-1.93,6-2.53,9.14-.72,3.72-3.3,3.42-5.91,3.15-6.71-.69-13.43-1.36-20.13-2.25-1.52-.2-3.51-.88-4.27-2-1.06-1.59-.13-3.23,1.89-4,.4-.14.75-.9.81-1.41,1-9.29,2.18-18.57,3-27.88a37.75,37.75,0,0,0-.44-11.14c-.93-4.21-7.19-5.06-10.38-2.13-1.55,1.42-1.68,4.79-1.79,7.31-.43,9.19-.53,18.4-.84,27.59-.15,4.46-.62,8.9-.69,13.36,0,2.73-2.44,3.46-3.58,2.83-4.46-2.46-8.19.4-12,1.36-7.11,1.78-14,4.48-20.93,6.79.63-4.56,1.31-9.59,2-14.62.42-2.9,1.1-5.78,1.35-8.7.41-4.69.72-9.4.77-14.1a113.56,113.56,0,0,1,3.14-27c1.41-5.55,1.26-11.47,2.19-17.17,1.31-8.07,3-16.09,4.49-24.13.22-1.16.55-2.3.83-3.44l-1.21-.33c-1.14,4.61-2.44,9.18-3.38,13.82-1.82,9-3.66,18-5.06,27-1.15,7.4-1.87,14.88-2.43,22.36-.92,12.33-1.44,24.7-2.38,37-.23,3.11-1.43,6.15-2.19,9.23l-1.27,0c-1.55-5-3.4-10-4.6-15.15-3.14-13.47-11-22.67-24.69-25-7.33-1.27-15-.71-22.65.51a67,67,0,0,0-23.09,7.88C61.66,156.8,52.6,163.51,43.41,170A84.75,84.75,0,0,0,31.7,179.5c-4.44,4.5-8.27,9.61-12.43,14.4a35.55,35.55,0,0,1-3.34,3l-1.64-.75c.91-7.51,1.34-15.13,2.87-22.52a207.9,207.9,0,0,1,6.9-25.36c3.3-9.66,7.12-19.18,11.28-28.5a175.62,175.62,0,0,1,10.45-19.26c1.48-2.44,4.09-4.21,6.26-6.35-2.95-4.29-2.57-4.29,1.86-8.54A47.22,47.22,0,0,0,61.69,75c3.61-6.23,6.53-7.59,13.44-5.3L76,70c-2,4.28-8.92,4.35-8.57,10.62,3.14,1.09,5.09-.48,6.76-2.8,2.06-2.88,4-5.85,6.26-8.57,1-1.23,2.63-2,4-3l2.21,3.61c-.62-7.84,6.82-2.92,9.09-6l-.57,4.81.87.67c1.17-1.06,2.32-2.13,3.5-3.18s2.16-2.47,3.52-3c3.5-1.4,7.14-2.45,10.76-3.54a8.62,8.62,0,0,1,3.82-.13A151.46,151.46,0,0,0,88.21,93.26c-.43-6.5-.83-12.52-1.25-18.94-3.53,2.44-6.38,4.93-8.52,8.72-1.37,2.43-4.77,3.81-7.42,5.39a72.87,72.87,0,0,1-6.81,3.18l.43,1c4.87.38,9.74.75,14.61,1.14,13.64,1.08,25.72,6.39,36.9,14,2.35,1.59,3.62,1.43,4.91-1.13,3.28-6.55,6.93-12.93,10-19.58,2.13-4.57,4.28-9.11,6.57-13.6,3.48-6.81,6.75-13.72,10.19-20.54,1.21-2.4-.3-2.72-2-2.57-4.41.4-8.82.84-13.18,1.55-5.05.81-10.05,1.9-15.06,2.91q-12,2.43-24.05,4.93a58.61,58.61,0,0,0-8.53,2.07c-3.5,1.3-6.79,3.14-10.22,4.66a41.12,41.12,0,0,1-4,1.3ZM207.65,95.41c0-5.17.54-9.9-.16-14.43-.61-3.94-3.93-4.77-7.76-3.14-5.86,2.51-8.63,9.63-8.07,16.4Z"/><path d="M620.62,125.38c-3.52-1.2-6.61-2.44-9.8-3.27a44.45,44.45,0,0,0-8.27-1.35c-5.71-.38-11.44-.77-17.15-.67-4.65.07-9.28,1-13.93,1.26-2.12.12-4.28-.41-6.88-.69.32,4.23.53,8,.95,11.8a2.47,2.47,0,0,0,1.61,1.67c9.08,1.58,18.11,3.28,27.44,1.36,7.55-1.55,15.25-2.37,22.89-3.52a18.13,18.13,0,0,0,1.82-.27c1.54-.38,4-1.59,4.43-1.08,1.46,1.76,2.27,4.08,3.18,6.25,1,2.4,1.71,4.94,2.81,7.3,3.66,7.93,8.43,15.38,10,24.19.77,4.29,2.45,8.48,2.71,12.78.37,6.18-.2,12.42-.34,18.63-.05,2.59,0,5.18,0,7.77l-1,.38c-1.93-2.76-5-5.33-5.52-8.33-.73-4.35-3.71-6.65-6.3-8.94-8.73-7.72-18.9-13.35-29.3-18.51a131.8,131.8,0,0,0-16.35-7.31c-9.08-3.06-18.4-5.46-27.63-8.09a29.83,29.83,0,0,0-4.34-.76c-9.44-1.25-16.92,3.61-24.55,8a3.82,3.82,0,0,1-2.84.56c.48-.66,1-1.31,1.43-2L524,164c-1.46-2.24-3.44-4.32-4.29-6.78-2.18-6.34-7.7-10.16-11.22-15.5-4.34-6.57-10-12.31-15.08-18.36-1.3-1.53-.8-2.36.79-3,9.64-4.07,13.56-12.19,16.77-21.58A78.33,78.33,0,0,0,514.53,84c.71-5.2-.16-10.73-1-16-1.32-8.57-7.52-14.18-13.8-19-4.3-3.31-10-4.77-15.07-7.07-.53-.24-1-.59-1.61-.94,5.53-1.79,11.09-3.08,16.16-5.44,2.7-1.25,4.92-4.08,6.67-6.67A147.38,147.38,0,0,0,514,15c1.06-2,1.35-4.41,2.22-6.53.77-1.87,2-2.6,4.3-1.82,6,2,12.31,3.1,18.11,5.5,5.47,2.25,11.32,4.8,15.46,8.81,8.13,7.85,15.21,16.78,22.67,25.31,2,2.29,3.88,4.7,5.67,7.16a47.71,47.71,0,0,1,2.66,5c-6.42,1.14-12,1.81-17.38,3.16-7.75,2-15.88,3.18-22.13,8.86a4.24,4.24,0,0,0-.76,2.88c2.74,1.37,5.92,4,8.37,3.42,9-2,18.11-3.78,26.61-7.89,3-1.45,6.46-1.31,6.67-6.38a140.57,140.57,0,0,1,26.81,40.8C616.29,110.3,622,116.69,620.62,125.38Z"/><path d="M138.51,289.09c-.25-2.66-1-4.42-.43-5.59,4.22-9,8-18.39,13.25-26.8,6-9.54,16-15,25.4-20.69,6.2-3.77,13-6.82,18.47-11.45,3.83-3.23,6-8.51,8.6-13.06.84-1.49-3.21-6.79-5.31-7.51-8.6-2.94-16.82-1.6-25.12,1.63-7.82,3-14.57,7.3-20,13.73-.47.56-2.49.58-3.12.05a5.37,5.37,0,0,1-1.73-3.46c-.4-7.07-.64-14.14-.8-21.22-.08-3.46,1.25-4.09,4.82-3.79a24.66,24.66,0,0,0,7.94-.9c10.15-2.55,20.16-5.68,30.38-7.84,8.26-1.75,17-1.89,24.71,1.73,7.09,3.32,14.25,7.18,18.82,14.12,4.32,6.57,5.3,13.42,2.26,20.93-3.39,8.35-8.13,15.59-16,20.24-6.41,3.81-13.24,6.9-19.72,10.59A132.53,132.53,0,0,0,184.38,261c1,0,2.06,0,3.09,0,7.33.24,14.65.4,22,.77,7.58.38,14.47-2.34,21.39-4.7,1.83-.63,2.95-3.15,4.59-4.59.69-.6,1.87-.65,2.83-1,.1.84.23,1.68.28,2.52.29,5.07-1.4,9.53-3.69,14-1.05,2-.63,4.83-.91,7.28a6,6,0,0,1-4.17,5.38c-5.66,2.16-11.19,4.64-16.82,6.88a9.94,9.94,0,0,1-3.29.39A63.08,63.08,0,0,1,185.08,284c-3.28-1.28-7.39-.43-11.13-.48-2.9,0-5.8-.06-8.7.1-3.05.18-6.09.56-9.13.89-.85.09-1.69.42-2.54.43C148.57,285,143.38,284.14,138.51,289.09Z"/><path d="M409,245.77c-2.66-.75-5-1.93-7.26-1.92-8,0-11-7.1-11.7-13.56-.8-8,2.41-14.79,7.16-21,1.45-1.9,2.56-4.13,4.23-5.8,4.24-4.26,8.59-8.43,13.16-12.32,1.36-1.15,3.62-1.23,5.44-1.86,4.25-1.48,8.4-3.9,12.74-4.32,11.64-1.13,23.41-2.24,33,7.22,3.59,3.54,5.59,16.48,3.12,21.18-3.21,6.08-7.64,10.84-12.55,15.4-2.15,2-4,4.41-6.18,6.92,9.48,3.68,15.36,10,18.48,19a13.63,13.63,0,0,1-1,11.33c-4.9,8.81-12,15.41-20.75,20.56-7.27,4.27-15,6.36-23.12,5.68-6-.51-12-2.26-17.81-4-1.79-.54-3.16-2.75-4.53-4.36-2.41-2.8-4.63-4.83-4.33-9.84C397.67,263.17,401.14,254.08,409,245.77Zm14.72,19.86c.6.55,1.68,2.31,3.18,2.8,6.2,2,12.09-2.39,13.29-7.87.56-2.52-.5-4.25-2.94-5.22C431.89,253.23,423.72,258.62,423.68,265.63Zm9.07-55.87c-.17-.22-.33-.45-.49-.67-2.94,1.5-6.12,2.66-8.74,4.59-2.37,1.75-1.67,4.88.94,6.41,4.77,2.78,12.51.82,15.1-4,1-1.89,1.56-4.09-1.13-5.12A36.82,36.82,0,0,0,432.75,209.76Z"/><path d="M265.57,257.94a11.59,11.59,0,0,0-.85,2.53q-.84,9.4-1.53,18.82c-.41,5.51-2.11,6.72-7.93,6.68-2.84,0-5.67,1.2-8.53,1.54-1.51.17-3.54.17-4.51-.69a5.48,5.48,0,0,1-1.29-4.37c1-5.88,2.85-11.66,3.39-17.56,1.13-12.44,1.59-24.94,2.38-37.41.44-6.91,1-13.82,1.48-20.73.14-2.09,1.92-3.8.32-6.41-1-1.62,1.61-3.07,3.35-2.25,5.06,2.41,10.51,4.29,14.09,9a48.43,48.43,0,0,1,3.22,4c.95,1.63,2.26,3.54,2.13,5.23-.52,6.8-1.54,13.57-2.37,20.35l.88.8c2.57-2.79,5.12-5.6,7.71-8.36,1.12-1.2,2.42-3.3,3.49-3.2,1.42.13,2.76,1.92,4,3.11,2.48,2.33,4.69,5,7.39,7,2.46,1.87,2.4,3.49.39,5.27a34.83,34.83,0,0,1-5.63,4.11c-1.81,1.06-2.17,2.09-.42,3.28,6.82,4.66,9.66,11.85,12.53,19.09a9.18,9.18,0,0,0,2.29,3.29c3.05,2.76,6.42,5.2,9.31,8.12,1.26,1.27,1.67,3.4,2.47,5.14-1.71.68-3.42,1.93-5.13,1.94-5.86,0-11.73-.47-17.6-.6a34.14,34.14,0,0,0-5.46.7c-3.26.47-4.64-1.35-5.49-4.18-1.44-4.76-2.57-9.71-4.76-14.12-1.93-3.89-5.14-7.14-7.78-10.67Z"/><path d="M353.89,257.61a59.06,59.06,0,0,1-5.14,5.78c-1,.84-2.87,1.48-3.91,1.09s-1.66-2.16-2.11-3.45c-2.4-6.89,3.17-10.45,6.41-15,1.4-1.94,2.76-3.92,4.25-5.79q9.64-12,19.34-24c.76-.95,1.79-1.93,2-3,.45-2.28,1.8-3.32,3.58-2.2,1.26.8,2.8,3.22,2.41,4.21-4.07,10.42-3.74,21.45-5.07,32.25-.83,6.68-2,13.32-2.94,20a35.88,35.88,0,0,0,0,4c5.81-2.67,10.93-5.27,16.26-7.3a6.43,6.43,0,0,1,5.55.76c1.13,1,1.56,3.72,1.11,5.36-1.35,4.9-2.6,9.63-1.26,14.8.66,2.52-2.2,4.34-5.75,4.29-5.64-.07-11.28,0-16.92,0-6.64,0-13.29-.12-19.92,0-3.05.08-6.07.86-9.12,1.06a70,70,0,0,1-11.58.15c-.85-.08-2.44-3.4-2-4.33a129.85,129.85,0,0,1,7.77-12.4,2.77,2.77,0,0,1,2.23-.9c4,.59,7.91,1.4,11.87,2.06,2.3.38,3.79-.11,3.79-3,0-3.82.47-7.64.65-11.47a9.73,9.73,0,0,0-.5-2.38Z"/><path d="M140,56c.35,5.09-4.89,11.17-10,12.32-7.94,1.76-14.58,5.63-18.27,13.33-2.7,5.64-1.93,7.22,4,9.26,1.77.62,3.44,1.33,2.91,4.17-.43,2.29.37,4.81.56,6.57a59.87,59.87,0,0,0-7.38-1.86c-10-1.13-13-9.57-10-17,3.72-9.42,10.75-15.53,19.13-20.13,4-2.23,9-2.77,13.53-4.22A57.64,57.64,0,0,0,140,56Z"/><path d="M141,64.31c-3.46,5.21-6.12,11.12-12.81,14l3.29.6c1.23,4,1.14,4-11.25,5.32.23,2.2.23,2.2,6.69,3.13-1.68,4-3.32,7.87-5,11.75l-1-.24c-.1-.42-.4-.9-.28-1.25,1.37-4.09-.12-6.48-4-8.39-2.66-1.33-3-4-1.11-6.65,2.15-3,4-6.29,6.59-8.8a9.47,9.47,0,0,1,6.5-2.34c3.75.23,5.55-2,7.6-4.25,1.19-1.32,2.52-2.51,3.78-3.76Z"/><path d="M144.61,293.38,0,291.89v-1.1l144.61,1.56Z"/><path d="M681.48.3V29.1l-.28,0a7.6,7.6,0,0,1-.24-1.05c-.76-8.27-1.54-16.55-2.23-24.83C678.58,1.48,678.17-.83,681.48.3Z"/></g></g></svg>